<svg xmlns="http://www.w3.org/2000/svg" viewBox="0 0 48 48" width="48" height="48" role="img" aria-label="HelioScan">
  <title>HelioScan</title>
  <rect width="48" height="48" rx="10" fill="#0d1c32"/>
  <g fill="#f59e0b">
    <rect x="23.1" y="5" width="1.8" height="6.5" rx=".9"/>
    <rect x="23.1" y="5" width="1.8" height="6.5" rx=".9" transform="rotate(45 24 24)"/>
    <rect x="23.1" y="5" width="1.8" height="6.5" rx=".9" transform="rotate(90 24 24)"/>
    <rect x="23.1" y="5" width="1.8" height="6.5" rx=".9" transform="rotate(135 24 24)"/>
    <rect x="23.1" y="5" width="1.8" height="6.5" rx=".9" transform="rotate(180 24 24)"/>
    <rect x="23.1" y="5" width="1.8" height="6.5" rx=".9" transform="rotate(225 24 24)"/>
    <rect x="23.1" y="5" width="1.8" height="6.5" rx=".9" transform="rotate(270 24 24)"/>
    <rect x="23.1" y="5" width="1.8" height="6.5" rx=".9" transform="rotate(315 24 24)"/>
  </g>
  <circle cx="24" cy="24" r="8.5" fill="#f59e0b"/>
  <circle cx="24" cy="24" r="8.5" fill="none" stroke="#ffb95f" stroke-width="1.5" opacity=".55"/>
</svg>
